<svg width="24" height="24" viewBox="0 0 24 24" fill="none" xmlns="http://www.w3.org/2000/svg">
<path d="M8.5 5.5C9.05229 5.5 9.5 5.94772 9.5 6.5V7.5H10.5C11.0523 7.5 11.5 7.94772 11.5 8.5C11.5 9.05229 11.0523 9.5 10.5 9.5H9.5V10.5C9.5 11.0523 9.05229 11.5 8.5 11.5C7.94772 11.5 7.5 11.0523 7.5 10.5V9.5H6.5C5.94772 9.5 5.5 9.05229 5.5 8.5C5.5 7.94772 5.94772 7.5 6.5 7.5H7.5V6.5C7.5 5.94772 7.94772 5.5 8.5 5.5Z" fill="white" fill-opacity="0.85"/>
<path fill-rule="evenodd" clip-rule="evenodd" d="M12.25 1C6.0368 1 1 6.0368 1 12.25C1 18.4632 6.0368 23.5 12.25 23.5C15.331 23.5 18.1243 22.2602 20.1551 20.2545C20.3438 20.0681 20.4507 19.8144 20.4524 19.5492C20.454 19.2839 20.3502 19.0289 20.1637 18.8402L13.4111 12.0054L19.962 5.47639C20.154 5.28496 20.2601 5.02375 20.2559 4.75262C20.2517 4.48149 20.1376 4.22369 19.9397 4.0383C17.929 2.15474 15.2233 1 12.25 1ZM3 12.25C3 7.14137 7.14137 3 12.25 3C14.3222 3 16.2339 3.68046 17.7761 4.83129L11.2941 11.2917C10.9041 11.6804 10.9017 12.3112 11.2886 12.7028L18.0002 19.4961C16.421 20.7512 14.4237 21.5 12.25 21.5C7.14137 21.5 3 17.3586 3 12.25Z" fill="white" fill-opacity="0.85"/>
<path fill-rule="evenodd" clip-rule="evenodd" d="M20 9C18.3431 9 17 10.3431 17 12C17 13.6569 18.3431 15 20 15C21.6569 15 23 13.6569 23 12C23 10.3431 21.6569 9 20 9ZM19 12C19 11.4477 19.4477 11 20 11C20.5523 11 21 11.4477 21 12C21 12.5523 20.5523 13 20 13C19.4477 13 19 12.5523 19 12Z" fill="white" fill-opacity="0.85"/>
</svg>
