<svg width="24" height="24" viewBox="0 0 24 24" fill="none" xmlns="http://www.w3.org/2000/svg">
<path fill-rule="evenodd" clip-rule="evenodd" d="M8 3C8.55228 3 9 3.44772 9 4V5C9 5.55228 8.55228 6 8 6C7.44772 6 7 5.55228 7 5V4C7 3.44772 7.44772 3 8 3ZM12 3C12.5523 3 13 3.44772 13 4V5C13 5.55228 12.5523 6 12 6C11.4477 6 11 5.55228 11 5V4C11 3.44772 11.4477 3 12 3ZM16 3C16.5523 3 17 3.44772 17 4V5C17 5.55228 16.5523 6 16 6C15.4477 6 15 5.55228 15 5V4C15 3.44772 15.4477 3 16 3ZM8 6.5C8.55228 6.5 9 6.94772 9 7.5V11H11V7.5C11 6.94772 11.4477 6.5 12 6.5C12.5523 6.5 13 6.94772 13 7.5V11H15V7.5C15 6.94772 15.4477 6.5 16 6.5C16.5523 6.5 17 6.94772 17 7.5V11H20C20.5523 11 21 11.4477 21 12V16.9799C21.0003 16.9938 21.0003 17.0077 21 17.0217V19H22C22.5523 19 23 19.4477 23 20C23 20.5523 22.5523 21 22 21H2C1.44772 21 1 20.5523 1 20C1 19.4477 1.44772 19 2 19H3V17.0217C2.99971 17.0077 2.99971 16.9938 3 16.9799V12C3 11.4477 3.44772 11 4 11H7V7.5C7 6.94772 7.44772 6.5 8 6.5ZM5 13V15.382L5.55279 15.1056C5.83431 14.9648 6.16569 14.9648 6.44721 15.1056L8 15.882L9.55279 15.1056C9.83431 14.9648 10.1657 14.9648 10.4472 15.1056L12 15.882L13.5528 15.1056C13.8343 14.9648 14.1657 14.9648 14.4472 15.1056L16 15.882L17.5528 15.1056C17.8343 14.9648 18.1657 14.9648 18.4472 15.1056L19 15.382V13H5ZM19 17.618L18 17.118L16.4472 17.8944C16.1657 18.0352 15.8343 18.0352 15.5528 17.8944L14 17.118L12.4472 17.8944C12.1657 18.0352 11.8343 18.0352 11.5528 17.8944L10 17.118L8.44721 17.8944C8.16569 18.0352 7.83431 18.0352 7.55279 17.8944L6 17.118L5 17.618V19H19V17.618Z" fill="white" fill-opacity="0.85"/>
</svg>
