<svg width="24" height="24" viewBox="0 0 24 24" fill="none" xmlns="http://www.w3.org/2000/svg">
<path fill-rule="evenodd" clip-rule="evenodd" d="M15.5748 1.00285C16.1255 1.04415 16.5385 1.5241 16.4972 2.07484L14.9972 22.0748C14.9559 22.6256 14.4759 23.0386 13.9252 22.9972C13.3745 22.9559 12.9615 22.476 13.0028 21.9253L14.5028 1.92526C14.5441 1.37452 15.0241 0.96154 15.5748 1.00285ZM18.4252 1.00285C18.9759 0.96154 19.4559 1.37452 19.4972 1.92526L20.9972 21.9253C21.0385 22.476 20.6255 22.9559 20.0748 22.9972C19.5241 23.0386 19.0441 22.6256 19.0028 22.0748L17.5028 2.07484C17.4615 1.5241 17.8745 1.04415 18.4252 1.00285ZM7 1.00005C7.55228 1.00005 8 1.44776 8 2.00005V8.80926C8.0386 8.79532 8.07713 8.78041 8.11538 8.76447C8.38782 8.65095 8.60462 8.50287 8.75038 8.32066C8.8836 8.15414 9 7.90807 9 7.50005V2.50005C9 1.94776 9.44772 1.50005 10 1.50005C10.5523 1.50005 11 1.94776 11 2.50005V7.50005C11 8.34202 10.7414 9.03345 10.3121 9.57005C9.89538 10.091 9.36218 10.4116 8.88462 10.6106C8.57324 10.7404 8.26778 10.8259 8 10.8826V22C8 22.5523 7.55228 23 7 23C6.44772 23 6 22.5523 6 22V10.8826C5.73222 10.8259 5.42676 10.7404 5.11538 10.6106C4.63782 10.4116 4.10462 10.091 3.68788 9.57005C3.2586 9.03345 3 8.34202 3 7.50005V2.50005C3 1.94776 3.44772 1.50005 4 1.50005C4.55228 1.50005 5 1.94776 5 2.50005V7.50005C5 7.90807 5.1164 8.15414 5.24962 8.32066C5.39538 8.50287 5.61218 8.65095 5.88462 8.76447C5.92287 8.78041 5.9614 8.79532 6 8.80926V2.00005C6 1.44776 6.44772 1.00005 7 1.00005Z" fill="white" fill-opacity="0.85"/>
</svg>
