<svg width="24" height="24" viewBox="0 0 24 24" fill="none" xmlns="http://www.w3.org/2000/svg">
<path fill-rule="evenodd" clip-rule="evenodd" d="M11.2 3.8V7C11.2 7.55228 10.7523 8 10.2 8H6C5.44772 8 5 7.55228 5 7C5 6.44772 5.44772 6 6 6H9.2V3.8C9.2 3.23644 9.45155 2.57177 9.86923 2.04984C10.3122 1.49628 11.0285 1 12 1C12.9715 1 13.6878 1.49628 14.1308 2.04984C14.5484 2.57177 14.8 3.23644 14.8 3.8V6H18C18.5523 6 19 6.44772 19 7C19 7.55228 18.5523 8 18 8H13.8C13.2477 8 12.8 7.55228 12.8 7V3.8C12.7998 3.79696 12.7952 3.73201 12.753 3.62116C12.7124 3.51452 12.6499 3.40032 12.5692 3.29947C12.4122 3.10326 12.2285 3 12 3C11.7715 3 11.5878 3.10326 11.4308 3.29947C11.3501 3.40032 11.2876 3.51452 11.247 3.62116C11.2048 3.73201 11.2002 3.79695 11.2 3.8ZM3 10C3 9.44772 3.44772 9 4 9H20C20.5523 9 21 9.44772 21 10C21 10.5523 20.5523 11 20 11H19V22C19 22.5523 18.5523 23 18 23H6C5.44772 23 5 22.5523 5 22V11H4C3.44772 11 3 10.5523 3 10ZM7 11V21H17V19H13C12.4477 19 12 18.5523 12 18C12 17.4477 12.4477 17 13 17H17V15H13C12.4477 15 12 14.5523 12 14C12 13.4477 12.4477 13 13 13H17V11H7Z" fill="white" fill-opacity="0.85"/>
</svg>
