<svg width="20" height="20" viewBox="0 0 20 20" fill="none" xmlns="http://www.w3.org/2000/svg">
<path d="M10.0616 4.97829V0L5.53125 2.48915L10.0616 4.97829Z" fill="#3A77DB"/>
<path d="M10.0616 19.9139V14.9355L5.53125 17.4247L10.0616 19.9139Z" fill="#A4246D"/>
<path d="M14.5929 17.4237V12.4453L10.0625 14.9345L14.5929 17.4237Z" fill="#671546"/>
<path d="M5.53036 17.4237V12.4453L1 14.9345L5.53036 17.4237Z" fill="#F38542"/>
<path d="M5.53036 7.46658V2.48828L1 4.97743L5.53036 7.46658Z" fill="#33B83D"/>
<path d="M5.53036 12.4451V7.4668L1 9.95594L5.53036 12.4451Z" fill="#F7E011"/>
<path d="M10.0625 4.97829V0L14.5929 2.48915L10.0625 4.97829Z" fill="#4285F4"/>
<path d="M10.0625 19.9139V14.9355L14.5929 17.4247L10.0625 19.9139Z" fill="#8C2159"/>
<path d="M14.5898 17.4237V12.4453L19.1202 14.9345L14.5898 17.4237Z" fill="#570839"/>
<path d="M14.5929 7.46658V2.48828L10.0625 4.97743L14.5929 7.46658Z" fill="#41BCE9"/>
<path d="M14.5898 7.46658V2.48828L19.1202 4.97743L14.5898 7.46658Z" fill="#45CDFE"/>
<path d="M5.53125 7.46658V2.48828L10.0616 4.97743L5.53125 7.46658Z" fill="#21A52B"/>
<path d="M5.53125 17.4237V12.4453L10.0616 14.9345L5.53125 17.4237Z" fill="#EB4E25"/>
<path d="M1 9.95681V4.97852L5.53036 7.46766L1 9.95681Z" fill="#A6D134"/>
<path d="M1 14.9353V9.95703L5.53036 12.4462L1 14.9353Z" fill="#FBBC05"/>
</svg>
