<svg width="24" height="24" viewBox="0 0 24 24" fill="none" xmlns="http://www.w3.org/2000/svg">
<path fill-rule="evenodd" clip-rule="evenodd" d="M2 7C2 3.68629 4.68632 1 8 1C11.3137 1 14 3.68629 14 7C14 7.08204 13.9984 7.1637 13.9951 7.24494L15.5538 9.20443C16.7301 10.6837 18.4924 12.9003 20.8405 15.8541C21.3269 16.4499 21.284 17.3182 20.7392 17.8632L20.5375 18.0649C20.561 18.0823 20.5839 18.1009 20.6062 18.1207C21.5495 18.9575 21.8292 20.1799 21.4451 21.2598C21.0614 22.3385 20.0689 23.1533 18.7224 23.3846C17.9732 23.5133 17.2501 23.3668 16.6144 23.1449C15.9809 22.9238 15.3565 22.599 14.7967 22.2991C14.7133 22.2544 14.6314 22.2103 14.5508 22.1669C14.0662 21.906 13.6292 21.6708 13.2009 21.4862C12.7025 21.2713 12.3112 21.1695 11.9953 21.1695C10.983 21.1695 10.0942 21.6081 9.29342 22.6519C8.95725 23.0901 8.32951 23.1728 7.89132 22.8366C7.45313 22.5005 7.37042 21.8727 7.70658 21.4345C8.82242 19.98 10.2638 19.1695 11.9953 19.1695C12.7083 19.1695 13.3922 19.3907 13.9926 19.6495C14.5079 19.8717 15.032 20.1541 15.511 20.4123C15.5891 20.4544 15.6659 20.4958 15.7413 20.5362C16.3048 20.8382 16.8045 21.093 17.2734 21.2566C17.7399 21.4194 18.0972 21.4627 18.3839 21.4134C19.109 21.2889 19.4488 20.9042 19.5607 20.5896C19.6723 20.276 19.6108 19.9113 19.2789 19.6168C19.226 19.5698 19.1792 19.5185 19.1386 19.4638L18.6974 19.9051C18.1491 20.4533 17.2733 20.4934 16.6773 19.9974L16.6649 19.9869L8.51492 12.9782C8.34519 12.9926 8.17346 13 8 13C4.68632 13 2 10.3137 2 7ZM10.8018 12.307L17.6111 18.1629L19.0094 16.7646C16.7935 13.9772 15.1199 11.8721 13.9884 10.4492L13.3723 9.67466C12.812 10.798 11.9097 11.7209 10.8018 12.307ZM19.294 17.1223C19.2916 17.1194 19.2893 17.1165 19.2869 17.1136L19.294 17.1223ZM8 3C5.79088 3 4 4.79086 4 7C4 9.20912 5.79088 11 8 11C10.2091 11 12 9.20912 12 7C12 4.79086 10.2091 3 8 3ZM12.5279 11.5279C12.9184 11.1374 13.5516 11.1374 13.9421 11.5279L15.3563 12.9421C15.7468 13.3327 15.7468 13.9658 15.3563 14.3564C14.9658 14.7469 14.3326 14.7469 13.9421 14.3564L12.5279 12.9422C12.1374 12.5516 12.1374 11.9185 12.5279 11.5279Z" fill="white" fill-opacity="0.85"/>
</svg>
