<svg width="24" height="24" viewBox="0 0 24 24" fill="none" xmlns="http://www.w3.org/2000/svg">
<path fill-rule="evenodd" clip-rule="evenodd" d="M7 1C7.55228 1 8 1.44772 8 2V8.80922C8.0386 8.79527 8.07713 8.78036 8.11538 8.76442C8.38782 8.65091 8.60462 8.50282 8.75038 8.32062C8.8836 8.15409 9 7.90802 9 7.5V2.5C9 1.94772 9.44772 1.5 10 1.5C10.5523 1.5 11 1.94772 11 2.5V7.5C11 8.34198 10.7414 9.03341 10.3121 9.57001C9.89538 10.0909 9.36218 10.4116 8.88462 10.6106C8.57324 10.7403 8.26778 10.8258 8 10.8826V22C8 22.5523 7.55228 23 7 23C6.44772 23 6 22.5523 6 22V10.8826C5.73222 10.8258 5.42676 10.7403 5.11538 10.6106C4.63782 10.4116 4.10462 10.0909 3.68788 9.57001C3.2586 9.03341 3 8.34198 3 7.5V2.5C3 1.94772 3.44772 1.5 4 1.5C4.55228 1.5 5 1.94772 5 2.5V7.5C5 7.90802 5.1164 8.15409 5.24962 8.32062C5.39538 8.50282 5.61218 8.65091 5.88462 8.76442C5.92287 8.78036 5.9614 8.79527 6 8.80922V2C6 1.44772 6.44772 1 7 1ZM19 1C19.5523 1 20 1.44772 20 2V22C20 22.5523 19.5523 23 19 23C18.4477 23 18 22.5523 18 22V11.5H15C14.4477 11.5 14 11.0523 14 10.5V6C14 4.82502 14.2966 3.87729 14.7929 3.1328C15.2851 2.39456 15.9342 1.91489 16.5528 1.60557C17.1675 1.29822 17.7701 1.14952 18.2106 1.07611C18.4332 1.039 18.6209 1.02007 18.7569 1.01035C18.825 1.00549 18.8807 1.0029 18.9218 1.00153C18.9423 1.00085 18.9593 1.00046 18.9724 1.00025L18.9892 1.00005L18.9953 1.00001L18.9979 1L18.999 1C18.9995 1 19 1 19 2V1ZM18 3.17535C17.8203 3.23036 17.6324 3.30184 17.4472 3.39443C17.0658 3.58511 16.7149 3.85544 16.4571 4.2422C16.2034 4.6227 16 5.17498 16 6V9.5H18V3.17535Z" fill="white" fill-opacity="0.85"/>
</svg>
