<svg width="286" height="183" viewBox="0 0 286 183" fill="none" xmlns="http://www.w3.org/2000/svg">
<path d="M80.9804 45.5514V0L40.4902 22.7757L80.9804 45.5514Z" fill="#3A77DB"/>
<path d="M80.9804 182.206V136.654L40.4902 159.43L80.9804 182.206Z" fill="#A4246D"/>
<path d="M121.471 159.43V113.878L80.9805 136.654L121.471 159.43Z" fill="#671546"/>
<path d="M40.4901 159.43V113.878L0 136.654L40.4901 159.43Z" fill="#F38542"/>
<path d="M40.4901 68.3273V22.7759L0 45.5516L40.4901 68.3273Z" fill="#33B83D"/>
<path d="M40.4901 113.879V68.3271L0 91.1028L40.4901 113.879Z" fill="#F7E011"/>
<path d="M80.9806 45.5514V0L121.471 22.7757L80.9806 45.5514Z" fill="#4285F4"/>
<path d="M80.9806 182.206V136.654L121.471 159.43L80.9806 182.206Z" fill="#8C2159"/>
<path d="M121.47 159.43V113.878L161.96 136.654L121.47 159.43Z" fill="#570839"/>
<path d="M121.471 68.3273V22.7759L80.9805 45.5516L121.471 68.3273Z" fill="#41BCE9"/>
<path d="M121.47 68.3273V22.7759L161.96 45.5516L121.47 68.3273Z" fill="#45CDFE"/>
<path d="M40.4903 68.3273V22.7759L80.9805 45.5516L40.4903 68.3273Z" fill="#21A52B"/>
<path d="M40.4903 159.43V113.878L80.9805 136.654L40.4903 159.43Z" fill="#EB4E25"/>
<path d="M9.91821e-05 91.1027V45.5513L40.4902 68.327L9.91821e-05 91.1027Z" fill="#A6D134"/>
<path d="M9.91821e-05 136.654V91.1025L40.4902 113.878L9.91821e-05 136.654Z" fill="#FBBC05"/>
<path d="M53.3117 103.808C52.6077 103.808 51.957 103.637 51.3597 103.296C50.7837 102.955 50.325 102.496 49.9837 101.92C49.6424 101.323 49.4717 100.672 49.4717 99.9681V84.6081C49.4717 83.9041 49.6424 83.2641 49.9837 82.6881C50.325 82.0908 50.7837 81.6214 51.3597 81.2801C51.957 80.9388 52.6077 80.7681 53.3117 80.7681H72.4477V83.3601H53.3117C52.9704 83.3601 52.6717 83.4881 52.4157 83.7441C52.181 83.9788 52.0637 84.2668 52.0637 84.6081V99.9681C52.0637 100.309 52.181 100.608 52.4157 100.864C52.6717 101.099 52.9704 101.216 53.3117 101.216H72.4477V103.808H53.3117ZM79.5282 103.808C78.8242 103.808 78.1735 103.637 77.5762 103.296C77.0002 102.933 76.5309 102.464 76.1682 101.888C75.8269 101.291 75.6562 100.64 75.6562 99.9361V93.2161H91.9122V89.1201C91.9122 88.7788 91.7842 88.4908 91.5282 88.2561C91.2935 88.0001 91.0055 87.8721 90.6642 87.8721H75.6562V85.2481H90.6642C91.3895 85.2481 92.0402 85.4294 92.6162 85.7921C93.2135 86.1334 93.6829 86.6028 94.0242 87.2001C94.3869 87.7761 94.5682 88.4161 94.5682 89.1201V103.808H79.5282ZM79.5282 101.184H91.9122V95.8401H78.2802V99.9361C78.2802 100.277 78.3975 100.576 78.6322 100.832C78.8882 101.067 79.1869 101.184 79.5282 101.184ZM101.715 103.808C101.011 103.808 100.36 103.637 99.7629 103.296C99.1869 102.933 98.7176 102.464 98.3549 101.888C98.0136 101.291 97.8429 100.64 97.8429 99.9361V89.1201C97.8429 88.4161 98.0136 87.7761 98.3549 87.2001C98.7176 86.6028 99.1869 86.1334 99.7629 85.7921C100.36 85.4294 101.011 85.2481 101.715 85.2481H112.851C113.576 85.2481 114.227 85.4294 114.803 85.7921C115.4 86.1334 115.87 86.6028 116.211 87.2001C116.574 87.7761 116.755 88.4161 116.755 89.1201V95.8401H100.467V99.9361C100.467 100.277 100.584 100.576 100.819 100.832C101.075 101.067 101.374 101.184 101.715 101.184H116.755V103.808H101.715ZM100.467 93.2161H114.099V89.1201C114.099 88.7788 113.971 88.4908 113.715 88.2561C113.48 88.0001 113.192 87.8721 112.851 87.8721H101.715C101.374 87.8721 101.075 88.0001 100.819 88.2561C100.584 88.4908 100.467 88.7788 100.467 89.1201V93.2161ZM123.278 103.808C122.574 103.808 121.924 103.637 121.326 103.296C120.75 102.933 120.281 102.464 119.918 101.888C119.577 101.291 119.406 100.64 119.406 99.9361V79.1681H122.03V99.9361C122.03 100.277 122.148 100.576 122.382 100.832C122.638 101.067 122.937 101.184 123.278 101.184H126.414V103.808H123.278ZM141.589 103.808C140.885 103.808 140.235 103.637 139.637 103.296C139.061 102.955 138.603 102.496 138.261 101.92C137.92 101.323 137.749 100.672 137.749 99.9681V99.0721H140.341V99.9681C140.341 100.309 140.459 100.608 140.693 100.864C140.949 101.099 141.248 101.216 141.589 101.216H156.949C157.291 101.216 157.579 101.099 157.813 100.864C158.069 100.608 158.197 100.309 158.197 99.9681V94.8161C158.197 94.4748 158.069 94.1868 157.813 93.9521C157.579 93.7174 157.291 93.6001 156.949 93.6001H141.589C140.885 93.6001 140.235 93.4294 139.637 93.0881C139.061 92.7254 138.603 92.2561 138.261 91.6801C137.92 91.1041 137.749 90.4641 137.749 89.7601V84.6081C137.749 83.9041 137.92 83.2641 138.261 82.6881C138.603 82.0908 139.061 81.6214 139.637 81.2801C140.235 80.9388 140.885 80.7681 141.589 80.7681H156.949C157.653 80.7681 158.293 80.9388 158.869 81.2801C159.467 81.6214 159.936 82.0908 160.277 82.6881C160.619 83.2641 160.789 83.9041 160.789 84.6081V85.5041H158.197V84.6081C158.197 84.2668 158.069 83.9788 157.813 83.7441C157.579 83.4881 157.291 83.3601 156.949 83.3601H141.589C141.248 83.3601 140.949 83.4881 140.693 83.7441C140.459 83.9788 140.341 84.2668 140.341 84.6081V89.7601C140.341 90.1014 140.459 90.3894 140.693 90.6241C140.949 90.8588 141.248 90.9761 141.589 90.9761H156.949C157.653 90.9761 158.293 91.1574 158.869 91.5201C159.467 91.8614 159.936 92.3201 160.277 92.8961C160.619 93.4721 160.789 94.1121 160.789 94.8161V99.9681C160.789 100.672 160.619 101.323 160.277 101.92C159.936 102.496 159.467 102.955 158.869 103.296C158.293 103.637 157.653 103.808 156.949 103.808H141.589ZM167.966 103.808C167.262 103.808 166.611 103.637 166.014 103.296C165.438 102.933 164.968 102.464 164.606 101.888C164.264 101.291 164.094 100.64 164.094 99.9361V93.2161H180.35V89.1201C180.35 88.7788 180.222 88.4908 179.966 88.2561C179.731 88.0001 179.443 87.8721 179.102 87.8721H164.094V85.2481H179.102C179.827 85.2481 180.478 85.4294 181.054 85.7921C181.651 86.1334 182.12 86.6028 182.462 87.2001C182.824 87.7761 183.006 88.4161 183.006 89.1201V103.808H167.966ZM167.966 101.184H180.35V95.8401H166.718V99.9361C166.718 100.277 166.835 100.576 167.07 100.832C167.326 101.067 167.624 101.184 167.966 101.184ZM185.908 103.808V85.2481H200.948C201.652 85.2481 202.292 85.4294 202.868 85.7921C203.465 86.1334 203.934 86.6028 204.276 87.2001C204.638 87.7761 204.82 88.4161 204.82 89.1201V103.808H202.196V89.1201C202.196 88.7788 202.068 88.4908 201.812 88.2561C201.577 88.0001 201.289 87.8721 200.948 87.8721H189.812C189.47 87.8721 189.172 88.0001 188.916 88.2561C188.66 88.4908 188.532 88.7788 188.532 89.1201V103.808H185.908ZM212.029 103.808C211.304 103.808 210.642 103.637 210.045 103.296C209.469 102.933 209.01 102.464 208.669 101.888C208.328 101.291 208.157 100.64 208.157 99.9361V79.1681H210.781V85.2481H218.813V87.8721H210.781V99.9361C210.781 100.277 210.898 100.576 211.133 100.832C211.389 101.067 211.688 101.184 212.029 101.184H218.813V103.808H212.029ZM225.122 103.808C224.418 103.808 223.767 103.637 223.17 103.296C222.594 102.933 222.125 102.464 221.762 101.888C221.421 101.291 221.25 100.64 221.25 99.9361V93.2161H237.506V89.1201C237.506 88.7788 237.378 88.4908 237.122 88.2561C236.887 88.0001 236.599 87.8721 236.258 87.8721H221.25V85.2481H236.258C236.983 85.2481 237.634 85.4294 238.21 85.7921C238.807 86.1334 239.277 86.6028 239.618 87.2001C239.981 87.7761 240.162 88.4161 240.162 89.1201V103.808H225.122ZM225.122 101.184H237.506V95.8401H223.874V99.9361C223.874 100.277 223.991 100.576 224.226 100.832C224.482 101.067 224.781 101.184 225.122 101.184ZM243.064 103.808V85.2481H258.104C258.808 85.2481 259.448 85.4294 260.024 85.7921C260.621 86.1334 261.091 86.6028 261.432 87.2001C261.795 87.7761 261.976 88.4161 261.976 89.1201V103.808H259.352V89.1201C259.352 88.7788 259.224 88.4908 258.968 88.2561C258.733 88.0001 258.445 87.8721 258.104 87.8721H246.968C246.627 87.8721 246.328 88.0001 246.072 88.2561C245.816 88.4908 245.688 88.7788 245.688 89.1201V103.808H243.064ZM269.153 103.808C268.449 103.808 267.799 103.637 267.201 103.296C266.625 102.933 266.156 102.464 265.793 101.888C265.452 101.291 265.281 100.64 265.281 99.9361V93.2161H281.537V89.1201C281.537 88.7788 281.409 88.4908 281.153 88.2561C280.919 88.0001 280.631 87.8721 280.289 87.8721H265.281V85.2481H280.289C281.015 85.2481 281.665 85.4294 282.241 85.7921C282.839 86.1334 283.308 86.6028 283.649 87.2001C284.012 87.7761 284.193 88.4161 284.193 89.1201V103.808H269.153ZM269.153 101.184H281.537V95.8401H267.905V99.9361C267.905 100.277 268.023 100.576 268.257 100.832C268.513 101.067 268.812 101.184 269.153 101.184Z" fill="#333333"/>
</svg>
