<svg width="24" height="24" viewBox="0 0 24 24" fill="none" xmlns="http://www.w3.org/2000/svg">
<path fill-rule="evenodd" clip-rule="evenodd" d="M13 3C13 2.4 12.6 2 12 2C9.8 2 8.1 3.4 6.9 4.6C6.33398 5.16602 5.75072 5.80332 5.37095 6.5H3C1.9 6.5 1 7.4 1 8.5V15.4C1 16.5 1.9 17.4 3 17.4H5.35L5.5 17.7C5.9 18.2 6.3 18.8 6.9 19.4C8 20.6 9.8 22 12 22C12.6 22 13 21.6 13 21V3ZM7.2 16.6C7.5 17 7.9 17.5 8.4 18C9.14227 18.8165 10.0498 19.5228 11 19.8326V4.16565C10.0498 4.47055 9.14227 5.15773 8.4 5.9C7.9 6.5 7.5 7 7.2 7.4C6.76875 7.83125 6.65463 8.5 5.9 8.5H3V15.4H5.9C6.79125 15.4 6.73034 16.1303 7.2 16.6Z" fill="white" fill-opacity="0.85"/>
<path d="M16.6661 6.75409C16.2541 6.38624 15.622 6.42198 15.2541 6.83392C14.8863 7.24587 14.922 7.87803 15.3339 8.24588C15.5929 8.47709 15.8279 8.73634 16.0345 9.0192C16.6399 9.84809 17 10.8785 17 12C17 13.1118 16.6461 14.134 16.0502 14.9592C15.8398 15.2505 15.5994 15.517 15.3339 15.7541C14.922 16.122 14.8863 16.7541 15.2541 17.1661C15.622 17.578 16.2541 17.6137 16.6661 17.2459C17.0397 16.9123 17.377 16.538 17.6716 16.1301C18.5074 14.9727 19 13.5427 19 12C19 10.4438 18.4988 9.00228 17.6496 7.83958C17.3602 7.44334 17.0304 7.07939 16.6661 6.75409Z" fill="white" fill-opacity="0.85"/>
<path d="M17.7796 2.63909C17.3099 2.34854 16.6936 2.49375 16.4031 2.96342C16.1125 3.4331 16.2577 4.04939 16.7274 4.33994C19.2938 5.92755 21 8.76495 21 12C21 15.286 19.2395 18.1619 16.6054 19.7342C16.1312 20.0172 15.9762 20.6311 16.2592 21.1054C16.5423 21.5796 17.1562 21.7346 17.6304 21.4515C20.8441 19.5333 23 16.0189 23 12C23 8.04353 20.9105 4.57592 17.7796 2.63909Z" fill="white" fill-opacity="0.85"/>
</svg>
