<svg width="24" height="24" viewBox="0 0 24 24" fill="none" xmlns="http://www.w3.org/2000/svg">
<path fill-rule="evenodd" clip-rule="evenodd" d="M16.2714 10.272C16.2714 12.4812 14.4806 14.272 12.2714 14.272C10.0623 14.272 8.27148 12.4812 8.27148 10.272C8.27148 8.06283 10.0623 6.27197 12.2714 6.27197C14.4806 6.27197 16.2714 8.06283 16.2714 10.272ZM14.2714 10.272C14.2714 11.3766 13.376 12.272 12.2714 12.272C11.1669 12.272 10.2714 11.3766 10.2714 10.272C10.2714 9.1674 11.1669 8.27197 12.2714 8.27197C13.376 8.27197 14.2714 9.1674 14.2714 10.272Z" fill="white"/>
<path fill-rule="evenodd" clip-rule="evenodd" d="M5.79417 16.5183C2.19424 13.0909 2.05438 7.39409 5.48178 3.79417C8.90918 0.194243 14.6059 0.0543828 18.2059 3.48178C21.8058 6.90918 21.9457 12.6059 18.5183 16.2059L12.3124 22.7241L5.79417 16.5183ZM17.0698 14.8268L12.243 19.8965L7.17324 15.0698C4.3733 12.404 4.26452 7.97318 6.93028 5.17324C9.59603 2.3733 14.0268 2.26452 16.8268 4.93028C19.6267 7.59603 19.7355 12.0268 17.0698 14.8268Z" fill="white"/>
</svg>
